<?xml version="1.0" standalone="no"?>
<!DOCTYPE svg PUBLIC "-//W3C//DTD SVG 20010904//EN"
 "http://www.w3.org/TR/2001/REC-SVG-20010904/DTD/svg10.dtd">
<svg version="1.0" xmlns="http://www.w3.org/2000/svg"
 width="1751.000000pt" height="1751.000000pt" viewBox="0 0 1751.000000 1751.000000"
 preserveAspectRatio="xMidYMid meet">

<g transform="translate(0.000000,1751.000000) scale(0.100000,-0.100000)"
fill="#000000" stroke="none">
<path d="M4050 17275 l0 -225 -450 0 -450 0 0 -225 0 -225 -450 0 -450 0 0
-225 0 -225 -225 0 -225 0 0 -220 0 -220 -220 0 -220 0 0 -225 0 -225 -225 0
-225 0 0 -450 0 -450 -225 0 -225 0 0 -450 0 -450 -225 0 -225 0 0 -1790 0
-1790 225 0 225 0 0 -450 0 -450 225 0 225 0 0 -445 0 -445 223 -2 222 -3 3
-222 2 -223 223 -2 222 -3 3 -222 2 -223 220 0 220 0 0 -225 0 -225 334 0 335
0 5 43 c3 23 15 114 26 202 79 624 257 1344 474 1919 14 37 26 70 26 72 0 2
-69 4 -153 4 l-154 0 5 443 5 444 -129 6 c-71 4 -173 7 -226 7 l-98 0 0 445 0
445 -225 0 -225 0 0 900 0 900 225 0 225 0 0 450 0 450 225 0 225 0 0 445 0
445 445 0 445 0 0 225 0 225 450 0 450 0 0 225 0 225 900 0 900 0 0 -225 0
-225 444 0 444 0 7 -226 8 -227 443 5 444 5 0 -154 c0 -84 2 -153 4 -153 2 0
35 12 72 26 575 217 1295 395 1919 474 88 11 179 23 203 26 l42 5 0 335 0 334
-225 0 -225 0 0 220 0 220 -222 2 -223 3 -3 222 -2 223 -223 2 -222 3 -3 223
-2 222 -445 0 -445 0 0 225 0 225 -450 0 -450 0 0 225 0 225 -1790 0 -1790 0
0 -225z"/>
<path d="M11375 11659 c-1047 -58 -2016 -376 -2883 -945 -359 -236 -616 -447
-932 -763 -364 -364 -618 -686 -877 -1111 -809 -1329 -1047 -2954 -652 -4468
160 -614 426 -1211 774 -1737 443 -669 1016 -1240 1685 -1680 1494 -982 3350
-1220 5050 -647 1206 407 2267 1221 2984 2291 484 722 801 1543 925 2401 44
301 55 471 55 835 0 378 -12 554 -60 865 -129 840 -428 1620 -891 2324 -884
1345 -2281 2271 -3848 2551 -440 79 -904 108 -1330 84z m730 -2143 c983 -116
1861 -599 2466 -1357 433 -542 689 -1151 786 -1869 26 -193 26 -716 0 -910
-76 -571 -257 -1080 -544 -1533 -595 -939 -1550 -1544 -2673 -1692 -166 -22
-584 -31 -765 -16 -1216 101 -2287 771 -2899 1814 -70 119 -201 389 -249 512
-120 311 -200 642 -239 990 -17 156 -17 604 0 760 121 1090 668 2027 1549
2653 542 385 1179 608 1898 666 106 8 546 -4 670 -18z"/>
</g>
</svg>
