<?xml version="1.0" encoding="utf-8"?>
<!-- Svg Vector Icons : http://www.onlinewebfonts.com/icon -->
<!DOCTYPE svg PUBLIC "-//W3C//DTD SVG 1.1//EN" "http://www.w3.org/Graphics/SVG/1.1/DTD/svg11.dtd">
<svg version="1.1" xmlns="http://www.w3.org/2000/svg" xmlns:xlink="http://www.w3.org/1999/xlink" x="0px" y="0px" viewBox="0 0 1000 1000" enable-background="new 0 0 1000 1000" xml:space="preserve">
<metadata> Svg Vector Icons : http://www.onlinewebfonts.com/icon </metadata>
<g><g transform="translate(0.000000,512.000000) scale(0.100000,-0.100000)"><path d="M4045.2,4982.2c-373.2-99.5-631.6-373.2-740.7-788.6c-26.8-103.4-28.7-334.9-30.6-1906.3V499.6l47.8-70.8c122.5-183.7,396.2-176.1,512.9,11.5l45.9,72.7l9.6,1789.6l9.6,1789.6l42.1,78.5c53.6,101.4,158.9,191.4,248.8,216.3c49.8,13.4,824.9,21.1,2363.8,21.1c2237.4,0,2294.8,0,2392.5-38.3c130.1-49.8,254.6-172.3,302.4-302.4c38.3-99.5,38.3-151.2,38.3-2354.2c0-1473.8-7.7-2277.6-19.1-2323.6c-32.5-112.9-135.9-248.8-237.3-312l-93.8-57.4l-1772.3-9.6c-1337.9-7.7-1781.9-15.3-1812.5-32.5c-70.8-42.1-158.9-156.9-172.3-227.8c-17.2-97.6,17.2-199,97.6-275.6l68.9-67l1783.8-5.7c1238.3-3.8,1814.4,1.9,1885.3,17.2c181.8,36.4,400,162.7,549.3,312c155,156.9,243.1,312,296.7,520.6c36.4,143.5,38.3,220.1,38.3,2446c0,2492,1.9,2434.6-105.3,2660.4c-112.9,241.2-298.6,426.8-541.7,547.4c-239.2,118.7-151.2,114.8-2721.7,112.9C4274.8,5018.5,4181.1,5016.6,4045.2,4982.2z"/><path d="M6416.6,3734.3c-204.8-57.4-290.9-319.6-158.9-476.6c93.8-111,105.3-112.9,733-112.9c315.8,0,574.2-5.7,574.2-15.3c0-7.7-1378.1-1391.5-3064.3-3075.8c-1684.3-1684.3-3075.7-3085.3-3091.1-3114c-38.3-74.6-34.4-223.9,11.5-296.7c68.9-114.8,204.8-172.3,333-137.8c68.9,17.2,444,384.7,3160,3100.6c1695.8,1693.9,3087.2,3079.6,3096.8,3079.6c7.7,0,13.4-254.6,13.4-566.5c0-633.5,3.8-658.4,132.1-746.4c135.9-91.9,323.4-51.7,430.6,93.8c40.2,53.6,40.2,74.7,45.9,995.3c3.8,518.7,0,978-5.7,1024c-17.2,114.8-114.8,222-229.7,250.7C8290.4,3763,6514.2,3763,6416.6,3734.3z"/><path d="M814.4-78.4c-340.7-84.2-622-373.2-692.9-715.8c-28.7-141.6-28.7-3119.8,0-3261.4c51.7-248.8,227.8-486.1,449.8-602.9c231.6-124.4,183.7-120.6,1887.2-120.6c1052.7,0,1577.1,7.7,1646,21c319.6,67,579.9,298.6,683.3,606.7c38.3,112.9,40.2,155,40.2,1129.2v1012.5l-42.1,63.2c-61.2,90-130.1,135.9-222,147.4c-105.3,13.4-235.4-49.8-294.8-143.5l-44-70.8l-9.6-985.7c-9.6-947.4-11.5-987.6-47.8-1037.4c-21.1-28.7-72.7-70.8-116.8-91.9c-76.6-38.3-103.4-38.3-1611.6-34.4c-1514,5.7-1533.1,5.7-1584.8,45.9c-28.7,21.1-70.8,63.2-91.9,91.9c-40.2,51.7-40.2,70.8-45.9,1579l-3.8,1525.4l44,84.2c30.6,57.4,70.8,97.6,128.2,128.2l82.3,44h947.4h947.4l80.4,47.9c191.4,111,193.3,375.1,3.8,514.8c-53.6,40.2-72.7,40.2-1043.1,44C1160.8-55.4,889-61.1,814.4-78.4z"/></g></g>
</svg>