<svg xmlns="http://www.w3.org/2000/svg" width="892" height="436" viewBox="0 0 669 327">
   <path d="M294.98 23.77c19.67-.5 39.35-.35 59.02-.92 9.03.44 18.54-1.44 27.17 2.01 8.25 3.82 10.22 13.6 12.17 21.58.61 10.12.08 20.3.22 30.45.08 6.37-2.71 12.31-6.66 17.17 2.43 1.98 5.62 2.95 7.69 5.37 4.68 6.42 6.4 14.44 6.82 22.25.44 11.1.25 22.22-.18 33.32-1.03 8.28-3.26 17.63-10.6 22.62-7.45 4.24-16.28 4.35-24.62 4.22-10.99.54-21.98-.46-32.99-.11-13.15.4-26.46-.99-39.49 1.4-6.27-1.3-13.11-.6-18.85-3.85-4.85-3.65-7.01-9.75-8.09-15.52-1.66-10.18-.38-20.5-.81-30.75-.22-10.21-.37-21.51 6.38-29.91 2.32-3.57 6.3-5.26 9.99-7.02-2.38-2.29-5.43-4.23-6.58-7.49-3.03-8.18-1.82-17.04-2.14-25.57-.37-5.37.73-10.68.72-16.04-.06-6.09 2.11-12.2 5.9-16.96 3.59-4.36 9.44-6.15 14.93-6.25m2.01 2.07c-4.25.13-8.92-.11-12.44 2.7-4.09 2.37-6.27 6.78-7.85 11.05-3.06 11.22-1.79 22.93-2.08 34.4-.13 5.12.52 10.51 3.43 14.85 1.99 2.77 4.93 4.65 7.18 7.19-1.07 1.16-2.62 1.55-4.02 2.12-5.96 2.03-9.7 7.76-11.84 13.38-2.58 6.23-1.46 13.08-2.17 19.61-.81 6.27.23 12.57-.25 18.85-.49 8.25.18 17.1 4.84 24.19 2.59 4.09 7.4 6.46 12.22 6.29 18.99-.03 37.99-.23 56.99-.37 11.6-.7 23.23.59 34.84-.29 5.78-.47 12.11-1.34 16.6-5.34 7.82-8.78 8.08-21.35 7.89-32.46-.28-13.03 1.34-27.12-5.45-38.9-2.13-4.79-7.56-6.09-11.82-8.28 2.67-3.29 6.79-5.7 7.71-10.13 2.39-10.4 1.33-21.13 1.65-31.69-.57-8.49-2.17-17.7-8.44-23.97-3.28-3.43-8.41-3.23-12.77-3.54-24.74-.44-49.48.09-74.22.34Z" />
   <path d="M311.15 52.12c5.67.52 11.35.42 17.01-.17 11.14.74 22.34.14 33.49.6 4.43 1.69 5.27 7.11 7.25 10.91-1.06 6.7 1.75 14.64-3.22 20.23-3.71 5.06-10.72 4.08-16.21 4.52-14.12-1.03-28.28-.18-42.41-.53-5.95-.57-8.73-6.91-9.35-12.14-.46-6.1-.87-12.58 1.66-18.31 2.27-4.27 7.39-5.11 11.78-5.11m-6.67 2.41c-3.05 1.76-5.28 5.06-5.14 8.66.1 4.48-.1 8.97.03 13.46.48 4.33 3.63 9.53 8.59 9.13 16.01.81 32.04-.45 48.06.01 4.02.18 8.58-1.6 10.05-5.63 1.77-6.05 1.86-12.55.49-18.69-.79-3.32-3.32-6.58-6.9-7-4.21-.49-8.45-.25-12.67-.29-8 .11-15.98-.9-23.98-.36-6.17.34-12.43-.45-18.53.71ZM304.44 115.65c19.53-.43 39.09-.41 58.64-.41 5.47-.62 10.75 3.7 11.4 9.13.57 5.21.26 10.47.31 15.7.13 3.84-1.64 7.67-4.79 9.91-4.47 3.63-10.61 2.98-15.99 3.31-16.59-.44-33.18.65-49.76.17-5.01-.68-10.01-4.42-10.76-9.66-.74-4.57-.4-9.22-.6-13.82-.53-6.73 4.4-14.05 11.55-14.33m36.71 1.86c-10.38.08-20.76.25-31.15.1-4.62-.1-9.92.59-13.03 4.39-3.84 4.84-2.32 11.37-2.81 17.05-.42 5.47 3.36 11.14 8.89 12.12 7.58 1.37 15.32.36 22.98.54 7.34-.47 14.69-.13 22.02-.38 5.54-.79 11.17.96 16.62-.73 4.21-.7 7.83-4.28 8.25-8.58.63-5.31.63-10.69.24-16.01-.4-3.45-2.37-7.62-6.23-8.03-8.54-1.66-17.18-.17-25.78-.47Z" />
   <g>
      <path d="M282.98 22.05c3.59-.96 7.35-.62 11.02-.67 27.02-.08 54.05-.34 81.07.02 5.43.27 11.35 1.18 15.51 4.99 6.22 5.27 9.17 13.66 8.95 21.68.62 9.31-.96 18.63 0 27.9 0 4.48-.63 9.04-2.3 13.22-.68 2.21-4.5 2.71-3.86 5.36 2.69 2.01 6.13 3.12 8.11 5.98 3.67 4.58 5.38 10.26 6.33 15.96 1.93 5.17 2.4 10.68 2.74 16.14.46 4.1-2.34 7.49-3.7 11.15-1.9 4.13-2.21 8.74-1.67 13.2-.45 8.68-2.26 18.15-9.02 24.24-5.2 5.02-19.52 6.32-19.52 6.32L356 191.1l-23.1038 4.2416L313.11 191.9s-20.8-4.2-31.22-6.16c-6.54-.86-12.69-4.88-15.94-10.63-2.69-7.03-3.86-14.59-3.61-22.11.52-6.73-6.26-11.31-6.09-17.99-.47-6.21 2.18-11.97 3.85-17.81 2.96-7.45 6.57-15.05 13.04-20.09-6.5-6.59-6.68-16.47-6.6-25.14.31-13.36-1.53-27.5 4.45-39.96 2.17-4.99 6.89-8.41 11.99-9.96m12 1.72c-5.49.1-11.34 1.89-14.93 6.25-3.79 4.76-5.96 10.87-5.9 16.96.01 5.36-1.09 10.67-.72 16.04.32 8.53-.89 17.39 2.14 25.57 1.15 3.26 4.2 5.2 6.58 7.49-3.69 1.76-7.67 3.45-9.99 7.02-6.75 8.4-6.6 19.7-6.38 29.91.43 10.25-.85 20.57.81 30.75 1.08 5.77 3.24 11.87 8.09 15.52 5.74 3.25 15.3661 2.626 15.3661 2.626s29.8239.224 42.9739-.176c11.01-.35 22 .65 32.99.11 8.34.13 17.17.02 24.62-4.22 7.34-4.99 9.57-14.34 10.6-22.62.43-11.1.62-22.22.18-33.32-.42-7.81-2.14-15.83-6.82-22.25-2.07-2.42-5.26-3.39-7.69-5.37 3.95-4.86 6.74-10.8 6.66-17.17-.14-10.15.39-20.33-.22-30.45-1.95-7.98-3.92-17.76-12.17-21.58-8.63-3.45-18.14-1.57-27.17-2.01-19.67.57-39.35.42-59.02.92z" />
      <path d="M296.99 25.84c24.74-.25 49.48-.78 74.22-.34 4.36.31 9.49.11 12.77 3.54 6.27 6.27 7.87 15.48 8.44 23.97-.32 10.56.74 21.29-1.65 31.69-.92 4.43-5.04 6.84-7.71 10.13 4.26 2.19 9.69 3.49 11.82 8.28 6.79 11.78 5.17 25.87 5.45 38.9.19 11.11-.07 23.68-7.89 32.46-4.49 4-10.82 4.87-16.6 5.34-11.61.88-34.84.29-34.84.29s-38 .34-56.99.37c-4.82.17-9.63-2.2-12.22-6.29-4.66-7.09-5.33-15.94-4.84-24.19.48-6.28-.56-12.58.25-18.85.71-6.53-.41-13.38 2.17-19.61 2.14-5.62 5.88-11.35 11.84-13.38 1.4-.57 2.95-.96 4.02-2.12-2.25-2.54-5.19-4.42-7.18-7.19-2.91-4.34-3.56-9.73-3.43-14.85.29-11.47-.98-23.18 2.08-34.4 1.58-4.27 3.76-8.68 7.85-11.05 3.52-2.81 8.19-2.57 12.44-2.7m14.16 26.28c-4.39 0-9.6874.7503-11.78 5.11-2.7105 5.6469-2.2405 12.2203-1.66 18.31.4998 5.2429-.6953 11.6798 9.35 12.14 10.0452.4602 28.2589.1042 42.41.53 5.5051.1656 12.246.3436 16.21-4.52 4.7256-5.798 3.812-13.4726 3.22-20.23-.374-4.2685-2.5531-10.2618-7.25-10.91-11.0547-1.5255-39.3359-.3303-50.5-.43-5.6904-.0508 5.67.52 0 0m-6.71 63.53c-7.15.28-12.08 7.6-11.55 14.33.2 4.6-.14 9.25.6 13.82.75 5.24 5.75 8.98 10.76 9.66 16.58.48 33.17-.61 49.76-.17 5.38-.33 11.52.32 15.99-3.31 3.15-2.24 4.92-6.07 4.79-9.91-.05-5.23.26-10.49-.31-15.7-.65-5.43-5.93-9.75-11.4-9.13-19.55 0-39.11-.02-58.64.41zM636.5527 44.5305 332.8451 314.5734l.2432-46.2699s210.6491-154.457 303.4644-223.773z" />
      <path d="M304.48 54.53c6.1-1.16 12.3625-.327 18.53-.71 8.0028-.497 15.9794.4058 23.98.36 4.2201-.0242 8.46-.2 12.67.29 3.58.42 6.1403 3.673 6.9 7 1.4004 6.1331 1.28 12.64-.49 18.69-1.47 4.03-6.03 5.81-10.05 5.63-16.02-.46-32.05.8-48.06-.01-4.96.4-8.11-4.8-8.59-9.13-.13-4.49.07-8.98-.03-13.46-.14-3.6 2.09-6.9 5.14-8.66m1.05 2.24c-1.95 1.03-3.46 2.96-3.53 5.22-.5 4.99-.47 10.03-.17 15.03.16 3.23 2.58 7.06 6.24 6.59 15.98-.06 31.96.03 47.94.22 4.09.24 8.48-1.99 9.55-6.16.92-4.7.5-9.58-.09-14.29-.9-3.06-2.72-7.26-6.53-7.06-10.31.04-20.62-.12-30.93-.08-7.48-.49-15.05-.53-22.48.53zM586.53 69.26c11.37-5.34 34.53-15.18 34.53-15.18S421.1714 200.6063 333.455 264.9617l.775-67.7417s14.6-3.23 22.02-4.08c11.21-2.23 22.51-3.98 33.71-6.25 6.74-1.75 11.15-7.88 13.76-13.98 2.32-7.68 3.42-15.74 3.1-23.76 2.05-2.95 6.34-3.37 9.39-5.07 14.34-6.83 29.21-12.49 43.5-19.44 13.39-5.41 26.19-12.21 39.66-17.44 18.41-8.4 37.07-16.3 55.76-24.07 10.31-4.96 20.75-9.68 31.4-13.87zM35.5194 51.9476 331.98 268.15l-.0418 46.74zM42.9442 56.7858s2.76.72 4.09 1.24c21.73 9.1 43.17 18.86 64.94 27.86 12.17 4.62 23.7558 10.5142 35.9058 15.1642 7.17 3.33 14.7 5.8 21.79 9.31 29.97 12.29 59.48 25.71 89.12 38.81.34.23 1.03.7 1.37.93.11 6.51 1.64 12.84 2.66 19.24.91 5.13 4.09 9.52 7.61 13.21 8.58 6.06 19.42 6.45 29.35 8.62 10.76 1.75 21.45 3.87 32.12 6.08.93 2.1.51 4.5.61 6.75-.38 20.31-.56 60.94-.56 60.94z" />
      <path d="M36.6624 52.8406 249.6 136.43l5.45 2.54 3.9 7.96zM341.15 117.51c8.6.3 17.24-1.19 25.78.47 3.86.41 5.83 4.58 6.23 8.03.39 5.32.39 10.7-.24 16.01-.42 4.3-4.04 7.88-8.25 8.58-5.45 1.69-16.62.73-16.62.73l-22.02.38s-15.4.83-22.98-.54c-5.53-.98-9.31-6.65-8.89-12.12.49-5.68-1.03-12.21 2.81-17.05 3.11-3.8 8.41-4.49 13.03-4.39 10.39.15 20.77-.02 31.15-.1m-37.77 3.01c-3.48.75-5.242 3.2459-6.69 7.26-1.448 4.0141-1.31 10.81.82 15.71 1.57 3.58 5.88 4.59 9.44 4.59 17.67-.59 35.37-.43 53.05-.44 3.02-.15 6.8-.23 8.64-3.06 3.39-4.42 3.31-10.94 2.94-15.54-.37-4.6-3.08-7.79-7.16-8.35-14.1-1.41-32.2608-.7766-32.2608-.7766s-22.5992.1366-28.7792.6066z" />
   </g>
   <path d="m636.6891 46.3482-228.7733 99.2277 4.251-8.922z" />
</svg>